<?xml version="1.0" encoding="utf-8"?>
<svg viewBox="189.548 133.357 18.975 17.71" xmlns="http://www.w3.org/2000/svg">
  <path fill-rule="evenodd" d="M 191.1 143.902 C 191.105 137.743 197.776 133.9 203.106 136.984 C 206.436 138.911 207.923 142.934 206.647 146.563 C 206.205 147.816 204.802 148.165 203.715 147.813 C 202.409 147.39 200.575 146.902 199.1 146.902 C 197.626 146.902 195.79 147.39 194.485 147.813 C 193.398 148.165 191.995 147.816 191.553 146.563 C 191.252 145.708 191.099 144.808 191.1 143.902 Z M 198.599 138.394 L 198.599 139.894 C 198.599 140.072 198.694 140.237 198.849 140.327 C 199.182 140.519 199.599 140.279 199.599 139.894 L 199.599 138.394 C 199.599 138.117 199.375 137.894 199.099 137.894 C 198.823 137.894 198.599 138.117 198.599 138.394 Z M 194.831 140.333 L 195.745 141.248 C 195.871 141.374 196.056 141.423 196.228 141.377 C 196.601 141.277 196.725 140.812 196.453 140.54 L 195.538 139.626 C 195.343 139.43 195.026 139.43 194.831 139.626 C 194.636 139.821 194.636 140.137 194.831 140.333 Z M 193.599 144.394 L 195.185 144.394 C 195.363 144.394 195.529 144.298 195.618 144.144 C 195.81 143.81 195.57 143.394 195.185 143.394 L 193.599 143.394 C 193.323 143.394 193.099 143.617 193.099 143.894 C 193.099 144.17 193.323 144.394 193.599 144.394 Z M 203.099 144.394 L 204.599 144.394 C 204.777 144.394 204.943 144.298 205.032 144.144 C 205.224 143.81 204.984 143.394 204.599 143.394 L 203.099 143.394 C 202.823 143.394 202.599 143.617 202.599 143.894 C 202.599 144.17 202.823 144.394 203.099 144.394 Z M 203.353 139.648 C 203.209 139.505 202.98 139.496 202.826 139.628 L 198.646 143.204 C 198.11 143.655 198.264 144.517 198.923 144.755 C 199.292 144.889 199.705 144.77 199.948 144.462 L 203.382 140.165 C 203.506 140.01 203.493 139.787 203.353 139.647 Z" style="paint-order: fill; stroke-opacity: 0; filter: none;"/>
</svg>